# xmcd
# Track frame offsets:
# 150
# 16158
# 31593
# 46271
# 61563
# 79804
# 95622
# 111613
# 125565
# 145189
# 164967
# 181249
# 199470
# 214021
# 230912
#
# Disc length: 3316 seconds
# Revision: 0
# Processed by: cddbd v1.5.1PL0 Copyright (c) Steve Scherf et al.
# Submitted via: VisiTrax 2.9.10.228 - For more info visit www.synapsa.com
#
DISCID=d60cf20f
DTITLE=Strait, George - CB90018
DYEAR=1900
DGENRE=Karaoke
TTITLE0=You Look So Good In Love
TTITLE1=All My Ex's Live In Texas
TTITLE2=Love Without End Amen
TTITLE3=Gone As A Girl Can Get
TTITLE4=I'd Like To Have That One Back
TTITLE5=You Can't Make A Heart Love Somebody
TTITLE6=Lead On
TTITLE7=Out Of The Blue Clear Sky
TTITLE8=Carrying Your Love With Me
TTITLE9=I Can Still Make Cheyenne
TTITLE10=King Of The Mountain
TTITLE11=One Night At A Time
TTITLE12=Round About Way
TTITLE13=True
TTITLE14=You Haven't Left Me Yet
EXTD=
EXTT0=
EXTT1=
EXTT2=
EXTT3=
EXTT4=
EXTT5=
EXTT6=
EXTT7=
EXTT8=
EXTT9=
EXTT10=
EXTT11=
EXTT12=
EXTT13=
EXTT14=
PLAYORDER=
